HIERARCHY
ROOT hip
{
	OFFSET 0.000000 0.000000 0.000000
	CHANNELS 6 Xposition Yposition Zposition Xrotation Zrotation Yrotation 
	JOINT abdomen
	{
		OFFSET 0.000000 3.422050 0.000000
		CHANNELS 3 Xrotation Zrotation Yrotation 
		JOINT chest
		{
			OFFSET 0.000000 8.486693 -0.684411
			CHANNELS 3 Xrotation Zrotation Yrotation 
			JOINT neck
			{
				OFFSET 0.000000 10.266162 -0.273764
				CHANNELS 3 Xrotation Zrotation Yrotation 
				JOINT head
				{
					OFFSET 0.000000 3.148285 0.000000
					CHANNELS 3 Xrotation Zrotation Yrotation 
					End Site
					{
						OFFSET 0.000000 3.148289 0.000000
					}
				}
			}
			JOINT lCollar
			{
				OFFSET 3.422053 6.707223 -0.821293
				CHANNELS 3 Yrotation Zrotation Xrotation 
				JOINT lShldr
				{
					OFFSET 3.285171 0.000000 0.000000
					CHANNELS 3 Zrotation Yrotation Xrotation 
					JOINT lForeArm
					{
						OFFSET 10.129278 0.000000 0.000000
						CHANNELS 3 Yrotation Zrotation Xrotation 
						JOINT lHand
						{
							OFFSET 8.486692 0.000000 0.000000
							CHANNELS 3 Zrotation Yrotation Xrotation 
							End Site
							{
								OFFSET 4.106464 0.000000 0.000000
							}
						}
					}
				}
			}
			JOINT rCollar
			{
				OFFSET -3.558935 6.707223 -0.821293
				CHANNELS 3 Yrotation Zrotation Xrotation 
				JOINT rShldr
				{
					OFFSET -3.148289 0.000000 0.000000
					CHANNELS 3 Zrotation Yrotation Xrotation 
					JOINT rForeArm
					{
						OFFSET -10.266159 0.000000 0.000000
						CHANNELS 3 Yrotation Zrotation Xrotation 
						JOINT rHand
						{
							OFFSET -8.349810 0.000000 0.000000
							CHANNELS 3 Zrotation Yrotation Xrotation 
							End Site
							{
								OFFSET -4.106464 0.000000 0.000000
							}
						}
					}
				}
			}
		}
	}
	JOINT lThigh
	{
		OFFSET 5.338403 -1.642589 1.368821
		CHANNELS 3 Xrotation Zrotation Yrotation 
		JOINT lShin
		{
			OFFSET -2.053232 -20.121670 0.000000
			CHANNELS 3 Xrotation Zrotation Yrotation 
			JOINT lFoot
			{
				OFFSET 0.000000 -19.300380 -1.231939
				CHANNELS 3 Xrotation Yrotation Zrotation 
				End Site
				{
					OFFSET 0.000000 -2.463878 4.653993
				}
			}
		}
	}
	JOINT rThigh
	{
		OFFSET -5.338403 -1.642589 1.368821
		CHANNELS 3 Xrotation Zrotation Yrotation 
		JOINT rShin
		{
			OFFSET 2.053232 -20.121670 0.000000
			CHANNELS 3 Xrotation Zrotation Yrotation 
			JOINT rFoot
			{
				OFFSET 0.000000 -19.300380 -1.231939
				CHANNELS 3 Xrotation Yrotation Zrotation 
				End Site
				{
					OFFSET 0.000000 -2.463878 4.653993
				}
			}
		}
	}
}
MOTION
Frames: 14
Frame Time: 0.033264
2.744503 5.245853 -28.634636 -90.006653 2.637141 -90.006653 -8.484096 -12.478413 -3.031803 4.921094 -2.912207 -0.071347 6.640309 -8.331154 4.577425 -4.604280 -1.194623 11.925447 -1.494007 -1.733038 -14.255917 -55.767582 -27.940065 -27.866325 -18.391417 -53.248505 -8.589867 -42.128475 -4.040079 -3.666713 7.383890 21.725180 2.301536 58.234303 23.672798 -3.754177 49.377682 8.411425 -77.400612 63.773216 -29.079702 16.167641 -25.596582 17.092268 8.804098 62.021976 -39.678894 -13.189128 22.330797 10.330527 12.469336 -3.122525 5.975036 -14.423204 78.497490 -26.528179 -21.945932 11.103908 10.309642 13.346407 
2.788657 5.245853 -28.634636 -90.006287 3.290590 -90.006287 -8.809450 -12.478334 -3.031749 4.192333 -2.912188 -0.071334 6.214375 -8.355794 4.727380 -4.753620 -1.216633 12.304569 -1.502149 -1.936622 -13.901998 -55.767582 -27.940065 -27.866325 -18.391417 -53.248505 -8.589867 -42.141125 -3.837312 -3.647433 7.383890 21.725180 2.301536 58.234303 23.672798 -3.754177 49.377682 8.411425 -77.400612 63.773216 -29.079702 16.167641 -26.250841 17.222586 8.951668 62.076183 -39.812332 -13.285889 22.428110 10.339892 12.663371 -3.961066 5.997982 -14.458362 78.740303 -26.579649 -22.051741 11.103908 10.309642 13.346407 
2.832812 5.245853 -28.634636 -90.005928 3.943954 -90.005928 -9.134791 -12.478255 -3.031694 3.463692 -2.912170 -0.071321 5.788090 -8.379347 4.877617 -4.903187 -1.237666 12.683959 -1.509033 -2.140241 -13.548079 -55.767582 -27.940065 -27.866325 -18.391417 -53.248505 -8.589867 -42.153687 -3.634543 -3.628200 7.383890 21.725180 2.301536 58.234303 23.672798 -3.754177 49.377682 8.411425 -77.400612 63.773216 -29.079702 16.167641 -26.905113 17.354486 9.097753 62.130783 -39.945690 -13.383002 22.525385 10.349580 12.857389 -4.799474 6.020408 -14.493841 78.983315 -26.630711 -22.157833 11.103908 10.309642 13.346407 
2.876967 5.245853 -28.634636 -90.005562 4.597188 -90.005554 -9.460123 -12.478181 -3.031641 2.735225 -2.912151 -0.071309 5.361469 -8.401805 5.028126 -5.052966 -1.257719 13.063601 -1.514659 -2.343884 -13.194168 -55.767582 -27.940065 -27.866325 -18.391417 -53.248505 -8.589867 -42.166199 -3.431773 -3.609018 7.383890 21.725180 2.301536 58.234303 23.672798 -3.754177 49.377682 8.411425 -77.400612 63.773216 -29.079702 16.167641 -27.559349 17.487936 9.242321 62.185764 -40.078968 -13.480464 22.622641 10.359596 13.051398 -5.637666 6.042308 -14.529639 79.226524 -26.681366 -22.264210 11.103908 10.309642 13.346407 
2.921122 5.245853 -28.634636 -90.005173 5.250251 -90.005173 -9.785431 -12.478104 -3.031586 2.006996 -2.912132 -0.071296 4.934528 -8.423163 5.178890 -5.202950 -1.276787 13.443480 -1.519025 -2.547535 -12.840256 -55.767582 -27.940065 -27.866325 -18.391417 -53.248505 -8.589867 -42.178616 -3.229005 -3.589884 7.383890 21.725180 2.301536 58.234303 23.672798 -3.754177 49.377682 8.411425 -77.400612 63.773216 -29.079702 16.167641 -28.213509 17.622913 9.385343 62.241165 -40.212185 -13.578289 22.719851 10.369933 13.245385 -6.475546 6.063677 -14.565742 79.469971 -26.731625 -22.370876 11.103908 10.309642 13.346407 
2.965276 5.245853 -28.634636 -90.004784 5.903101 -90.004784 -10.110708 -12.478020 -3.031533 1.279062 -2.912113 -0.071284 4.507284 -8.443424 5.329900 -5.353128 -1.294870 13.823589 -1.522133 -2.751185 -12.486346 -55.767582 -27.940065 -27.866325 -18.391417 -53.248505 -8.589867 -42.190979 -3.026239 -3.570798 7.383890 21.725180 2.301536 58.234303 23.672798 -3.754177 49.377682 8.411425 -77.400612 63.773216 -29.079702 16.167641 -28.867538 17.759378 9.526788 62.296974 -40.345318 -13.676473 22.817030 10.380595 13.439355 -7.313026 6.084507 -14.602136 79.713593 -26.781469 -22.477819 11.103908 10.309642 13.346407 
3.009431 5.245853 -28.634636 -90.004410 6.555704 -90.004410 -10.435958 -12.477943 -3.031481 0.551478 -2.912093 -0.071272 4.079751 -8.462577 5.481142 -5.503490 -1.311963 14.203914 -1.523982 -2.954819 -12.132441 -55.767582 -27.940065 -27.866325 -18.391417 -53.248505 -8.589867 -42.203266 -2.823476 -3.551761 7.383890 21.725180 2.301536 58.234303 23.672798 -3.754177 49.377682 8.411425 -77.400612 63.773216 -29.079702 16.167641 -29.521402 17.897306 9.666628 62.353207 -40.478390 -13.775025 22.914164 10.391576 13.633300 -8.150020 6.104793 -14.638810 79.957443 -26.830910 -22.585047 11.103908 10.309642 13.346407 
3.053586 5.245853 -28.634636 -90.004013 7.208006 -90.004013 -10.761170 -12.477864 -3.031429 -0.175692 -2.912074 -0.071261 3.651948 -8.480623 5.632603 -5.654027 -1.328064 14.584447 -1.524571 -3.158424 -11.778534 -55.767582 -27.940065 -27.866325 -18.391417 -53.248505 -8.589867 -42.215477 -2.620719 -3.532771 7.383890 21.725180 2.301536 58.234303 23.672798 -3.754177 49.377682 8.411425 -77.400612 63.773216 -29.079702 16.167641 -30.175070 18.036671 9.804839 62.409824 -40.611362 -13.873932 23.011259 10.402884 13.827223 -8.986436 6.124530 -14.675753 80.201462 -26.879932 -22.692543 11.103908 10.309642 13.346407 
3.097741 5.245853 -28.634636 -90.003632 7.859975 -90.003624 -11.086342 -12.477785 -3.031377 -0.902396 -2.912055 -0.071249 3.223885 -8.497554 5.784267 -5.804725 -1.343171 14.965167 -1.523901 -3.361988 -11.424633 -55.767582 -27.940065 -27.866325 -18.391417 -53.248505 -8.589867 -42.227634 -2.417968 -3.513829 7.383890 21.725180 2.301536 58.234303 23.672798 -3.754177 49.377682 8.411425 -77.400612 63.773216 -29.079702 16.167641 -30.828485 18.177439 9.941394 62.466888 -40.744282 -13.973219 23.108316 10.414513 14.021123 -9.822186 6.143714 -14.712954 80.445694 -26.928553 -22.800322 11.103908 10.309642 13.346407 
3.141895 5.245853 -28.634636 -90.003212 8.511555 -90.003212 -11.411464 -12.477704 -3.031326 -1.628570 -2.912035 -0.071238 2.795583 -8.513373 5.936129 -5.955578 -1.357282 15.346067 -1.521971 -3.565496 -11.070732 -55.767582 -27.940065 -27.866325 -18.391417 -53.248505 -8.589867 -42.239716 -2.215224 -3.494932 7.383890 21.725180 2.301536 58.234303 23.672798 -3.754177 49.377682 8.411425 -77.400612 63.773216 -29.079702 16.167641 -31.481606 18.319571 10.076261 62.524353 -40.877113 -14.072870 23.205330 10.426465 14.214995 -10.657179 6.162337 -14.750395 80.690109 -26.976753 -22.908363 11.103908 10.309642 13.346407 
3.186050 5.245853 -28.634636 -90.002815 9.162713 -90.002815 -11.736539 -12.477630 -3.031276 -2.354159 -2.912015 -0.071227 2.367058 -8.528072 6.088170 -6.106575 -1.370394 15.727142 -1.518782 -3.768938 -10.716838 -55.767582 -27.940065 -27.866325 -18.391417 -53.248505 -8.589867 -42.251728 -2.012489 -3.476083 7.383890 21.725180 2.301536 58.234303 23.672798 -3.754177 49.377682 8.411425 -77.400612 63.773216 -29.079702 16.167641 -32.134399 18.463039 10.209421 62.582218 -41.009850 -14.172893 23.302290 10.438736 14.408835 -11.491331 6.180398 -14.788069 80.934700 -27.024540 -23.016674 11.103908 10.309642 13.346407 
3.230205 5.245853 -28.634636 -90.002403 9.813409 -90.002396 -12.061548 -12.477545 -3.031225 -3.079108 -2.911996 -0.071217 1.938326 -8.541653 6.240377 -6.257702 -1.382505 16.108366 -1.514335 -3.972299 -10.362944 -55.767582 -27.940065 -27.866325 -18.391417 -53.248505 -8.589867 -42.263664 -1.809764 -3.457280 7.383890 21.725180 2.301536 58.234303 23.672798 -3.754177 49.377682 8.411425 -77.400612 63.773216 -29.079702 16.167641 -32.786816 18.607813 10.340843 62.640518 -41.142509 -14.273294 23.399212 10.451332 14.602648 -12.324552 6.197890 -14.825955 81.179466 -27.071909 -23.125244 11.103908 10.309642 13.346407 
3.274359 5.245853 -28.634636 -90.001991 10.463607 -90.001991 -12.386501 -12.477468 -3.031176 -3.803355 -2.911975 -0.071206 1.509403 -8.554109 6.392736 -6.408953 -1.393614 16.489737 -1.508628 -4.175567 -10.009050 -55.767582 -27.940065 -27.866325 -18.391417 -53.248505 -8.589867 -42.275536 -1.607051 -3.438522 7.383890 21.725180 2.301536 58.234303 23.672798 -3.754177 49.377682 8.411425 -77.400612 63.773216 -29.079702 16.167641 -33.438820 18.753857 10.470506 62.699245 -41.275085 -14.374070 23.496078 10.464245 14.796423 -13.156754 6.214813 -14.864047 81.424454 -27.118862 -23.234087 11.103908 10.309642 13.346407 
3.318514 5.245853 -28.634636 -90.001564 11.113250 -90.001564 -12.711382 -12.477386 -3.031126 -4.526849 -2.911955 -0.071196 1.080305 -8.565441 6.545239 -6.560314 -1.403718 16.871239 -1.501664 -4.378728 -9.655160 -55.767582 -27.940065 -27.866325 -18.391417 -53.248505 -8.589867 -42.287338 -1.404351 -3.419809 7.383890 21.725180 2.301536 58.234303 23.672798 -3.754177 49.377682 8.411425 -77.400612 63.773216 -29.079702 16.167641 -34.090378 18.901134 10.598387 62.758408 -41.407589 -14.475235 23.592896 10.477481 14.990167 -13.987861 6.231161 -14.902336 81.669594 -27.165394 -23.343184 11.103908 10.309642 13.346407 
